<svg width="249" height="121" viewBox="0 0 249 121" fill="none" xmlns="http://www.w3.org/2000/svg">
<path d="M4.29446 26.9801C3.74246 27.5321 3.31312 27.6855 3.00646 27.4401C2.76112 27.1335 2.88379 26.6735 3.37446 26.0601C4.23312 25.0175 5.21446 24.1588 6.31846 23.4841C7.48379 22.7481 8.71046 22.2268 9.99846 21.9201C11.0411 21.6748 12.1145 21.6135 13.2185 21.7361C14.3838 21.8588 15.4878 22.1348 16.5305 22.5641C16.8371 22.6868 17.4198 22.9628 18.2785 23.3921C19.1371 23.8215 19.6891 24.1281 19.9345 24.3121C20.2411 24.6188 20.3945 24.9868 20.3945 25.4161C20.4558 25.8455 20.2718 26.1215 19.8425 26.2441C19.5358 26.3055 19.1985 26.2441 18.8305 26.0601C18.5238 25.8761 18.2171 25.6921 17.9105 25.5081C16.6838 24.7108 15.3038 24.1281 13.7705 23.7601C12.2371 23.3921 10.7651 23.4228 9.35446 23.8521C8.37312 24.1588 7.45312 24.5881 6.59446 25.1401C5.73579 25.6921 4.96912 26.3055 4.29446 26.9801ZM18.7385 89.0801C18.1865 89.2028 17.4505 89.2948 16.5305 89.3561C15.6105 89.3561 14.6905 89.3255 13.7705 89.2641C12.8505 89.2028 11.9611 89.0801 11.1025 88.8961C10.3051 88.6508 9.69179 88.3135 9.26246 87.8841C8.83312 87.5161 8.46512 86.8415 8.15846 85.8601C7.85179 84.8788 7.57579 83.8361 7.33046 82.7321C7.08512 81.5668 6.87046 80.4628 6.68646 79.4201C6.50246 78.3161 6.37979 77.4575 6.31846 76.8441C5.76646 73.1641 5.30646 69.4535 4.93846 65.7121C4.57046 61.9708 4.23312 58.2295 3.92646 54.4881C3.80379 52.7708 3.65046 50.6241 3.46646 48.0481C3.34379 45.4721 3.37446 42.8961 3.55846 40.3201C3.74246 37.6828 4.14112 35.2601 4.75446 33.0521C5.42912 30.8441 6.47179 29.2188 7.88246 28.1761C8.86379 27.4401 9.90646 26.9801 11.0105 26.7961C12.1758 26.6121 13.3105 26.6735 14.4145 26.9801C15.5185 27.2868 16.5305 27.8081 17.4505 28.5441C18.3705 29.2188 19.1371 30.1081 19.7505 31.2121C22.3878 30.5375 24.9945 29.9855 27.5705 29.5561C30.2078 29.0655 32.8758 28.7281 35.5745 28.5441C37.1078 28.4215 38.6411 28.3601 40.1745 28.3601C41.7691 28.3601 43.2718 28.6668 44.6825 29.2801C46.0318 29.7708 46.9825 30.6601 47.5345 31.9481C48.2705 33.4815 48.5158 35.0761 48.2705 36.7321C48.0251 38.3881 47.1665 39.5841 45.6945 40.3201C45.1425 40.6268 44.1918 40.8721 42.8425 41.0561C41.5545 41.1788 40.1438 41.3015 38.6105 41.4241C37.1385 41.4855 35.7278 41.5468 34.3785 41.6081C33.0291 41.6695 32.0478 41.7308 31.4345 41.7921C29.9625 41.9148 28.4905 42.0988 27.0185 42.3441C25.5465 42.5895 24.0745 42.8041 22.6025 42.9881C22.6025 44.3988 22.6331 45.8401 22.6945 47.3121C22.7558 48.7228 22.9398 50.1335 23.2465 51.5441C24.0438 51.4215 25.2705 51.2988 26.9265 51.1761C28.5825 50.9921 30.3305 50.8695 32.1705 50.8081C34.0105 50.6855 35.7585 50.6548 37.4145 50.7161C39.0705 50.7775 40.2971 50.9308 41.0945 51.1761C41.7691 51.4215 42.3518 51.8508 42.8425 52.4641C43.3945 53.0775 43.8238 53.7521 44.1305 54.4881C44.3145 55.0401 44.4678 55.7148 44.5905 56.5121C44.7745 57.2481 44.8665 58.0148 44.8665 58.8121C44.9278 59.5481 44.8665 60.2535 44.6825 60.9281C44.5598 61.6028 44.2531 62.1241 43.7625 62.4921C43.3331 62.7988 42.8425 63.0135 42.2905 63.1361C41.7998 63.2588 41.3091 63.3815 40.8185 63.5041C37.8131 64.1788 34.7771 64.5468 31.7105 64.6081C28.6438 64.6695 25.5771 64.8841 22.5105 65.2521C22.5718 66.2335 22.7251 67.7055 22.9705 69.6681C23.2771 71.6308 23.5531 73.6855 23.7985 75.8321C24.0438 77.9175 24.1665 79.9415 24.1665 81.9041C24.2278 83.8055 24.0745 85.1855 23.7065 86.0441C23.2771 86.9028 22.5718 87.6081 21.5905 88.1601C20.6705 88.6508 19.7198 88.9575 18.7385 89.0801ZM29.7785 69.9441C29.3491 70.0668 28.9198 70.0668 28.4905 69.9441C28.3065 69.8215 28.1838 69.6375 28.1225 69.3921C28.1225 69.1468 28.2145 68.9628 28.3985 68.8401C28.5211 68.7175 28.6745 68.6868 28.8585 68.7481C29.0425 68.7481 29.2265 68.7175 29.4105 68.6561C29.7785 68.5948 30.4531 68.4721 31.4345 68.2881C32.4158 68.1041 33.4585 67.9508 34.5625 67.8281C35.6665 67.7055 36.7091 67.6135 37.6905 67.5521C38.6718 67.4295 39.3771 67.3681 39.8065 67.3681C40.2971 67.4295 40.6345 67.6748 40.8185 68.1041C41.0638 68.5335 40.9411 68.8708 40.4505 69.1161C40.2051 69.2388 39.6838 69.3001 38.8865 69.3001C38.0891 69.2388 37.5371 69.2081 37.2305 69.2081C36.0038 69.2695 34.7465 69.3615 33.4585 69.4841C32.2318 69.6068 31.0051 69.7601 29.7785 69.9441Z" fill="white"/>
<path d="M71.7732 45.9321C71.6506 46.2388 71.4052 46.3921 71.0372 46.3921C70.7306 46.3921 70.5466 46.2081 70.4852 45.8401C70.3626 45.5335 70.3012 45.2268 70.3012 44.9201C70.3626 44.6135 70.4239 44.3068 70.4852 44.0001C70.6692 41.6695 70.7306 39.3388 70.6692 37.0081C70.6079 34.6775 70.1786 32.4388 69.3812 30.2921C69.0132 29.2495 68.4306 28.2988 67.6332 27.4401C66.8972 26.5815 66.0386 25.9068 65.0572 25.4161C64.9346 25.2935 64.8119 25.2321 64.6892 25.2321C64.6279 25.2321 64.5359 25.2015 64.4132 25.1401C64.1679 24.9561 64.0759 24.7721 64.1372 24.5881C64.1986 24.3428 64.3519 24.1588 64.5972 24.0361C64.9039 23.9748 65.3639 24.0668 65.9772 24.3121C67.1426 24.8028 68.1239 25.5695 68.9212 26.6121C69.7799 27.5935 70.4546 28.6668 70.9452 29.8321C71.8039 32.1628 72.2332 34.6161 72.2332 37.1921C72.2332 39.7068 72.1412 42.2215 71.9572 44.7361C71.9572 44.8588 71.9266 45.0735 71.8652 45.3801C71.8652 45.6255 71.8346 45.8095 71.7732 45.9321ZM71.4972 84.8481C70.2706 85.8295 68.9212 86.5655 67.4492 87.0561C65.9772 87.4855 64.4746 87.7001 62.9412 87.7001C61.4692 87.6388 59.9972 87.3628 58.5252 86.8721C57.1146 86.3815 55.8266 85.6148 54.6612 84.5721C53.4346 83.5295 52.4532 82.2721 51.7172 80.8001C50.9812 79.3281 50.3679 77.8255 49.8772 76.2921C49.3252 74.3908 48.9572 72.4588 48.7732 70.4961C48.5892 68.4721 48.4972 66.4788 48.4972 64.5161C48.4972 59.2415 48.7426 54.0281 49.2332 48.8761C49.7239 43.6628 50.3679 38.4495 51.1652 33.2361C51.2266 32.9295 51.4106 32.3775 51.7172 31.5801C52.0239 30.7828 52.2999 30.2308 52.5452 29.9241C52.9746 29.3721 53.5266 29.0041 54.2012 28.8201C54.9372 28.5748 55.6426 28.3908 56.3172 28.2681C57.4826 28.1455 58.6479 28.1455 59.8132 28.2681C60.9786 28.3908 62.0826 28.7281 63.1252 29.2801C64.4746 30.0775 65.3946 31.2428 65.8852 32.7761C66.3759 34.3708 66.5906 36.0575 66.5292 37.8361C66.5292 39.5535 66.4986 41.2708 66.4372 42.9881C66.3759 45.0121 66.2839 47.0361 66.1612 49.0601C66.0386 51.0841 65.9159 53.1081 65.7932 55.1321C65.6706 56.1748 65.5479 57.1868 65.4252 58.1681C65.3026 59.0881 65.1799 60.0388 65.0572 61.0201C64.9346 62.0015 64.8119 63.2895 64.6892 64.8841C64.6279 66.4788 64.5972 68.1348 64.5972 69.8521C64.6586 71.5081 64.8119 73.0721 65.0572 74.5441C65.3026 76.0161 65.7626 77.1201 66.4372 77.8561C66.8666 78.3468 67.5412 78.5308 68.4612 78.4081C69.3812 78.2855 70.1479 78.1015 70.7612 77.8561C71.5586 77.6108 72.2026 77.5801 72.6932 77.7641C73.3679 78.0708 73.7972 78.6228 73.9812 79.4201C74.1652 80.1561 74.1652 80.8615 73.9812 81.5361C73.7972 82.2108 73.4599 82.8241 72.9692 83.3761C72.4786 83.9281 71.9879 84.4188 71.4972 84.8481Z" fill="white"/>
<path d="M122.805 79.6961C122.682 80.9228 122.284 82.0268 121.609 83.0081C120.934 83.9281 120.106 84.6641 119.125 85.2161C118.144 85.7681 117.07 86.0748 115.905 86.1361C114.74 86.1975 113.605 85.9521 112.501 85.4001C111.52 84.9095 110.692 84.0201 110.017 82.7321C109.342 81.3828 108.76 79.9108 108.269 78.3161C107.84 76.7215 107.502 75.1268 107.257 73.5321C107.012 71.9375 106.858 70.5881 106.797 69.4841C106.184 71.0175 105.509 72.5201 104.773 73.9921C104.037 75.4641 103.148 76.8441 102.105 78.1321C101.124 79.4815 99.9889 80.7081 98.7009 81.8121C97.4129 82.9161 95.9715 83.7441 94.3769 84.2961C92.5982 84.9708 90.6662 85.2468 88.5809 85.1241C86.5569 84.9401 84.6862 84.4495 82.9689 83.6521C81.0062 82.7321 79.3195 81.5361 77.9089 80.0641C76.5595 78.5308 75.5169 76.7828 74.7809 74.8201C73.9222 72.4895 73.4929 70.0668 73.4929 67.5521C73.5542 64.9761 73.6462 62.4001 73.7689 59.8241C73.8302 58.9655 73.9529 57.7081 74.1369 56.0521C74.3209 54.3961 74.5662 52.6788 74.8729 50.9001C75.2409 49.1215 75.6089 47.4348 75.9769 45.8401C76.4062 44.2455 76.8969 43.1108 77.4489 42.4361C78.0009 41.7615 78.7062 41.2095 79.5649 40.7801C80.4235 40.3508 81.3435 40.0441 82.3249 39.8601C83.3062 39.6761 84.2875 39.6455 85.2689 39.7681C86.2502 39.8295 87.1395 40.0441 87.9369 40.4121C88.5502 40.6575 89.1022 40.9948 89.5929 41.4241C90.0835 41.7921 90.4515 42.2828 90.6969 42.8961C91.1262 43.7548 91.3102 44.7055 91.2489 45.7481C91.1875 46.7295 91.0649 47.7108 90.8809 48.6921C90.3902 51.1455 89.8382 53.5681 89.2249 55.9601C88.6115 58.3521 88.2129 60.8055 88.0289 63.3201C87.9675 64.1175 87.9369 64.9148 87.9369 65.7121C87.9982 66.5095 88.1209 67.3068 88.3049 68.1041C88.6729 69.4535 89.3169 70.6188 90.2369 71.6001C91.2182 72.5815 92.3529 72.8881 93.6409 72.5201C94.1929 72.3975 94.6835 72.1828 95.1129 71.8761C95.6035 71.5081 96.0329 71.1095 96.4009 70.6801C97.0755 69.9441 97.5969 69.1468 97.9649 68.2881C98.3329 67.3681 98.6702 66.4481 98.9769 65.5281C99.5902 63.7495 100.142 61.9708 100.633 60.1921C101.185 58.3521 101.706 56.5121 102.197 54.6721C102.32 54.1815 102.473 53.6908 102.657 53.2001C102.902 52.7095 103.209 52.2801 103.577 51.9121C104.129 51.1761 104.865 50.6548 105.785 50.3481C106.521 50.0415 107.288 49.9188 108.085 49.9801C108.944 50.0415 109.741 50.1948 110.477 50.4401C111.704 50.8695 112.808 51.8815 113.789 53.4761C114.832 55.0095 115.752 56.7575 116.549 58.7201C117.346 60.6828 118.052 62.6455 118.665 64.6081C119.278 66.5708 119.8 68.1655 120.229 69.3921C120.842 71.0481 121.456 72.7348 122.069 74.4521C122.682 76.1695 122.928 77.9175 122.805 79.6961ZM120.045 54.8561C120.106 55.3468 119.861 55.6841 119.309 55.8681C118.818 55.9908 118.481 55.8068 118.297 55.3161C117.99 54.5188 117.714 53.7521 117.469 53.0161C117.224 52.2188 116.948 51.4215 116.641 50.6241C116.334 49.7655 115.997 48.9681 115.629 48.2321C115.322 47.4348 114.893 46.6988 114.341 46.0241C113.482 45.1655 112.501 44.4908 111.397 44.0001C110.293 43.4481 109.158 43.1415 107.993 43.0801C107.012 43.0188 106.061 43.1415 105.141 43.4481C104.282 43.7548 103.424 44.1228 102.565 44.5521C102.197 44.7361 101.829 44.7055 101.461 44.4601C101.154 44.2148 101.154 43.9388 101.461 43.6321C101.706 43.3868 102.074 43.1415 102.565 42.8961C103.117 42.6508 103.7 42.4361 104.313 42.2521C104.926 42.0068 105.509 41.8228 106.061 41.7001C106.613 41.5161 107.073 41.4241 107.441 41.4241C109.588 41.3628 111.55 41.9148 113.329 43.0801C115.169 44.2455 116.518 45.7788 117.377 47.6801C117.5 47.9868 117.684 48.4775 117.929 49.1521C118.236 49.7655 118.512 50.4708 118.757 51.2681C119.064 52.0041 119.34 52.7095 119.585 53.3841C119.83 54.0588 119.984 54.5495 120.045 54.8561Z" fill="white"/>
<path d="M149.257 25.6921C147.847 25.8148 146.375 25.8761 144.841 25.8761C143.369 25.8148 141.928 25.6001 140.517 25.2321C140.088 25.1095 139.659 24.9868 139.229 24.8641C138.8 24.7415 138.401 24.5881 138.033 24.4041C137.665 24.2201 137.573 23.9748 137.757 23.6681C138.003 23.3001 138.309 23.1468 138.677 23.2081C139.475 23.3308 140.241 23.4841 140.977 23.6681C141.713 23.7908 142.48 23.9135 143.277 24.0361C144.749 24.1588 146.221 24.1281 147.693 23.9441C149.165 23.7601 150.607 23.5148 152.017 23.2081C152.324 23.1468 152.631 23.0855 152.937 23.0241C153.244 22.9628 153.551 22.9321 153.857 22.9321C154.287 22.9321 154.532 23.1468 154.593 23.5761C154.716 24.0055 154.593 24.3428 154.225 24.5881C154.041 24.7108 153.704 24.8335 153.213 24.9561C152.784 25.0175 152.293 25.1095 151.741 25.2321C151.251 25.3548 150.76 25.4775 150.269 25.6001C149.779 25.6615 149.441 25.6921 149.257 25.6921ZM136.653 86.8721C135.979 86.9948 135.12 87.0561 134.077 87.0561C133.096 87.0561 132.084 86.9948 131.041 86.8721C130.06 86.7495 129.109 86.5655 128.189 86.3201C127.269 86.0135 126.564 85.6148 126.073 85.1241C125.583 84.6335 125.307 84.0201 125.245 83.2841C125.245 82.4868 125.276 81.7508 125.337 81.0761C125.521 78.0095 125.491 74.9428 125.245 71.8761C125.061 68.8095 124.816 65.7428 124.509 62.6761C124.203 59.6095 123.896 56.5428 123.589 53.4761C123.344 50.4095 123.283 47.3428 123.405 44.2761C123.528 42.4975 123.804 40.6881 124.233 38.8481C124.663 37.0081 125.399 35.3828 126.441 33.9721C127.484 32.5615 128.803 31.4268 130.397 30.5681C131.992 29.7095 133.617 29.0961 135.273 28.7281C136.991 28.3601 138.708 28.2375 140.425 28.3601C142.143 28.4215 143.86 28.5135 145.577 28.6361C147.172 28.7588 148.767 28.7281 150.361 28.5441C152.017 28.2988 153.643 28.1148 155.237 27.9921C155.851 27.9308 156.464 28.0535 157.077 28.3601C157.691 28.6055 158.181 28.9735 158.549 29.4641C159.101 30.1388 159.531 30.9361 159.837 31.8561C160.205 32.7148 160.42 33.6348 160.481 34.6161C160.543 35.5975 160.481 36.5481 160.297 37.4681C160.113 38.3881 159.776 39.1855 159.285 39.8601C158.672 40.6575 157.905 41.1481 156.985 41.3321C155.145 41.8228 153.275 41.9455 151.373 41.7001C149.472 41.4548 147.571 41.3321 145.669 41.3321C144.565 41.3321 143.4 41.4241 142.173 41.6081C141.008 41.7921 139.996 42.2215 139.137 42.8961C138.34 43.5095 137.727 44.2761 137.297 45.1961C136.868 46.1161 136.623 47.0361 136.561 47.9561C136.561 49.0601 136.715 50.1641 137.021 51.2681C137.389 52.3108 137.635 53.3841 137.757 54.4881C138.432 54.4881 139.567 54.3961 141.161 54.2121C142.817 53.9668 144.565 53.7521 146.405 53.5681C148.245 53.3228 149.963 53.1388 151.557 53.0161C153.213 52.8321 154.379 52.8015 155.053 52.9241C156.035 53.1081 156.832 53.5988 157.445 54.3961C158.12 55.2548 158.457 56.4201 158.457 57.8921C158.457 59.3641 158.12 60.5295 157.445 61.3881C156.893 62.0628 156.157 62.5841 155.237 62.9521C154.379 63.2588 153.52 63.4428 152.661 63.5041C151.373 63.6268 150.085 63.5961 148.797 63.4121C147.509 63.2281 146.221 63.0748 144.933 62.9521C143.952 62.8908 142.971 62.9215 141.989 63.0441C141.008 63.1668 140.027 63.2895 139.045 63.4121C139.536 66.1721 139.996 68.9321 140.425 71.6921C140.916 74.3908 141.223 77.1201 141.345 79.8801C141.407 80.6775 141.407 81.5055 141.345 82.3641C141.345 83.1615 141.131 83.8975 140.701 84.5721C140.272 85.2468 139.689 85.7681 138.953 86.1361C138.217 86.5041 137.451 86.7495 136.653 86.8721ZM140.149 91.6561C139.904 91.7175 139.505 91.7481 138.953 91.7481C138.401 91.8095 137.819 91.8095 137.205 91.7481C136.653 91.7481 136.101 91.7175 135.549 91.6561C134.997 91.6561 134.599 91.6255 134.353 91.5641C133.985 91.5028 133.771 91.2881 133.709 90.9201C133.709 90.5521 133.924 90.3068 134.353 90.1841C134.537 90.1228 134.844 90.0615 135.273 90.0001C135.764 90.0001 136.285 90.0001 136.837 90.0001C137.389 90.0001 137.911 90.0001 138.401 90.0001C138.892 89.9388 139.229 89.9081 139.413 89.9081C140.517 89.7855 141.468 89.3868 142.265 88.7121C143.86 87.3015 144.657 85.5535 144.657 83.4681C144.719 82.2415 144.627 81.0761 144.381 79.9721C144.197 78.8068 143.983 77.6108 143.737 76.3841C143.615 75.9548 143.737 75.7095 144.105 75.6481C144.473 75.5255 144.719 75.7095 144.841 76.2001C145.087 77.3655 145.301 78.5615 145.485 79.7881C145.669 80.9535 145.823 82.1495 145.945 83.3761C146.007 84.2961 145.884 85.2161 145.577 86.1361C145.271 86.9948 144.841 87.7921 144.289 88.5281C143.799 89.2641 143.185 89.9081 142.449 90.4601C141.713 91.0121 140.947 91.4108 140.149 91.6561Z" fill="white"/>
<path d="M186.756 25.6921C185.346 25.8148 183.874 25.8761 182.34 25.8761C180.868 25.8148 179.427 25.6001 178.016 25.2321C177.587 25.1095 177.158 24.9868 176.728 24.8641C176.299 24.7415 175.9 24.5881 175.532 24.4041C175.164 24.2201 175.072 23.9748 175.256 23.6681C175.502 23.3001 175.808 23.1468 176.176 23.2081C176.974 23.3308 177.74 23.4841 178.476 23.6681C179.212 23.7908 179.979 23.9135 180.776 24.0361C182.248 24.1588 183.72 24.1281 185.192 23.9441C186.664 23.7601 188.106 23.5148 189.516 23.2081C189.823 23.1468 190.13 23.0855 190.436 23.0241C190.743 22.9628 191.05 22.9321 191.356 22.9321C191.786 22.9321 192.031 23.1468 192.092 23.5761C192.215 24.0055 192.092 24.3428 191.724 24.5881C191.54 24.7108 191.203 24.8335 190.712 24.9561C190.283 25.0175 189.792 25.1095 189.24 25.2321C188.75 25.3548 188.259 25.4775 187.768 25.6001C187.278 25.6615 186.94 25.6921 186.756 25.6921ZM174.152 86.8721C173.478 86.9948 172.619 87.0561 171.576 87.0561C170.595 87.0561 169.583 86.9948 168.54 86.8721C167.559 86.7495 166.608 86.5655 165.688 86.3201C164.768 86.0135 164.063 85.6148 163.572 85.1241C163.082 84.6335 162.806 84.0201 162.744 83.2841C162.744 82.4868 162.775 81.7508 162.836 81.0761C163.02 78.0095 162.99 74.9428 162.744 71.8761C162.56 68.8095 162.315 65.7428 162.008 62.6761C161.702 59.6095 161.395 56.5428 161.088 53.4761C160.843 50.4095 160.782 47.3428 160.904 44.2761C161.027 42.4975 161.303 40.6881 161.732 38.8481C162.162 37.0081 162.898 35.3828 163.94 33.9721C164.983 32.5615 166.302 31.4268 167.896 30.5681C169.491 29.7095 171.116 29.0961 172.772 28.7281C174.49 28.3601 176.207 28.2375 177.924 28.3601C179.642 28.4215 181.359 28.5135 183.076 28.6361C184.671 28.7588 186.266 28.7281 187.86 28.5441C189.516 28.2988 191.142 28.1148 192.736 27.9921C193.35 27.9308 193.963 28.0535 194.576 28.3601C195.19 28.6055 195.68 28.9735 196.048 29.4641C196.6 30.1388 197.03 30.9361 197.336 31.8561C197.704 32.7148 197.919 33.6348 197.98 34.6161C198.042 35.5975 197.98 36.5481 197.796 37.4681C197.612 38.3881 197.275 39.1855 196.784 39.8601C196.171 40.6575 195.404 41.1481 194.484 41.3321C192.644 41.8228 190.774 41.9455 188.872 41.7001C186.971 41.4548 185.07 41.3321 183.168 41.3321C182.064 41.3321 180.899 41.4241 179.672 41.6081C178.507 41.7921 177.495 42.2215 176.636 42.8961C175.839 43.5095 175.226 44.2761 174.796 45.1961C174.367 46.1161 174.122 47.0361 174.06 47.9561C174.06 49.0601 174.214 50.1641 174.52 51.2681C174.888 52.3108 175.134 53.3841 175.256 54.4881C175.931 54.4881 177.066 54.3961 178.66 54.2121C180.316 53.9668 182.064 53.7521 183.904 53.5681C185.744 53.3228 187.462 53.1388 189.056 53.0161C190.712 52.8321 191.878 52.8015 192.552 52.9241C193.534 53.1081 194.331 53.5988 194.944 54.3961C195.619 55.2548 195.956 56.4201 195.956 57.8921C195.956 59.3641 195.619 60.5295 194.944 61.3881C194.392 62.0628 193.656 62.5841 192.736 62.9521C191.878 63.2588 191.019 63.4428 190.16 63.5041C188.872 63.6268 187.584 63.5961 186.296 63.4121C185.008 63.2281 183.72 63.0748 182.432 62.9521C181.451 62.8908 180.47 62.9215 179.488 63.0441C178.507 63.1668 177.526 63.2895 176.544 63.4121C177.035 66.1721 177.495 68.9321 177.924 71.6921C178.415 74.3908 178.722 77.1201 178.844 79.8801C178.906 80.6775 178.906 81.5055 178.844 82.3641C178.844 83.1615 178.63 83.8975 178.2 84.5721C177.771 85.2468 177.188 85.7681 176.452 86.1361C175.716 86.5041 174.95 86.7495 174.152 86.8721ZM177.648 91.6561C177.403 91.7175 177.004 91.7481 176.452 91.7481C175.9 91.8095 175.318 91.8095 174.704 91.7481C174.152 91.7481 173.6 91.7175 173.048 91.6561C172.496 91.6561 172.098 91.6255 171.852 91.5641C171.484 91.5028 171.27 91.2881 171.208 90.9201C171.208 90.5521 171.423 90.3068 171.852 90.1841C172.036 90.1228 172.343 90.0615 172.772 90.0001C173.263 90.0001 173.784 90.0001 174.336 90.0001C174.888 90.0001 175.41 90.0001 175.9 90.0001C176.391 89.9388 176.728 89.9081 176.912 89.9081C178.016 89.7855 178.967 89.3868 179.764 88.7121C181.359 87.3015 182.156 85.5535 182.156 83.4681C182.218 82.2415 182.126 81.0761 181.88 79.9721C181.696 78.8068 181.482 77.6108 181.236 76.3841C181.114 75.9548 181.236 75.7095 181.604 75.6481C181.972 75.5255 182.218 75.7095 182.34 76.2001C182.586 77.3655 182.8 78.5615 182.984 79.7881C183.168 80.9535 183.322 82.1495 183.444 83.3761C183.506 84.2961 183.383 85.2161 183.076 86.1361C182.77 86.9948 182.34 87.7921 181.788 88.5281C181.298 89.2641 180.684 89.9081 179.948 90.4601C179.212 91.0121 178.446 91.4108 177.648 91.6561Z" fill="white"/>
<path d="M248.083 35.8121C248.206 36.1188 248.145 36.4255 247.899 36.7321C247.654 36.9775 247.378 37.0081 247.071 36.8241C246.458 36.5175 245.906 36.1188 245.415 35.6281C244.986 35.0761 244.495 34.6161 243.943 34.2481C242.655 33.3895 241.275 32.7148 239.803 32.2241C238.331 31.6721 236.829 31.3655 235.295 31.3041C234.927 31.2428 234.529 31.2428 234.099 31.3041C233.731 31.3041 233.394 31.1815 233.087 30.9361C232.781 30.7521 232.719 30.5068 232.903 30.2001C233.087 29.8935 233.363 29.7095 233.731 29.6481C234.59 29.5255 235.449 29.5255 236.307 29.6481C237.166 29.7708 238.025 29.9548 238.883 30.2001C240.723 30.5681 242.41 31.2121 243.943 32.1321C244.189 32.2548 244.495 32.5001 244.863 32.8681C245.293 33.1748 245.722 33.5121 246.151 33.8801C246.581 34.2481 246.979 34.6161 247.347 34.9841C247.715 35.2908 247.961 35.5668 248.083 35.8121ZM227.015 98.8321C226.157 98.9548 225.298 98.9241 224.439 98.7401C223.642 98.6175 222.814 98.4641 221.955 98.2801C219.747 97.7281 218.091 96.5015 216.987 94.6001C215.945 92.6988 215.699 90.6748 216.251 88.5281C217.049 85.4001 218.183 82.4561 219.655 79.6961C221.189 76.8748 222.599 73.9921 223.887 71.0481C222.906 72.2135 221.863 73.3175 220.759 74.3601C219.655 75.4028 218.429 76.2308 217.079 76.8441C215.423 77.5801 213.614 77.8561 211.651 77.6721C210.057 77.4881 208.462 77.0281 206.867 76.2921C205.334 75.5561 203.985 74.6055 202.819 73.4401C201.593 72.2748 200.581 70.9255 199.783 69.3921C198.986 67.8588 198.434 66.2641 198.127 64.6081C197.453 60.9281 197.422 57.1868 198.035 53.3841C198.649 49.5815 199.538 45.9015 200.703 42.3441C201.01 41.4855 201.347 40.6575 201.715 39.8601C202.083 39.0015 202.513 38.2041 203.003 37.4681C203.801 36.1801 204.813 35.2908 206.039 34.8001C206.775 34.5548 207.603 34.4015 208.523 34.3401C209.443 34.2788 210.363 34.3401 211.283 34.5241C212.265 34.7081 213.154 34.9841 213.951 35.3521C214.81 35.7201 215.485 36.1801 215.975 36.7321C216.405 37.2228 216.681 37.8055 216.803 38.4801C216.987 39.1548 217.049 39.8295 216.987 40.5041C216.926 41.3628 216.803 42.2521 216.619 43.1721C216.435 44.0308 216.19 44.8895 215.883 45.7481C215.209 47.7721 214.534 49.7961 213.859 51.8201C213.185 53.8441 212.602 55.9295 212.111 58.0761C211.866 58.9961 211.651 59.9468 211.467 60.9281C211.345 61.8481 211.283 62.7988 211.283 63.7801C211.283 64.3321 211.314 64.9148 211.375 65.5281C211.498 66.1415 211.713 66.6935 212.019 67.1841C212.633 68.1655 213.491 68.8401 214.595 69.2081C215.699 69.5148 216.773 69.4228 217.815 68.9321C218.797 68.5028 219.625 67.8588 220.299 67.0001C221.035 66.1415 221.649 65.2521 222.139 64.3321C222.875 62.9828 223.458 61.6028 223.887 60.1921C224.317 58.7815 224.715 57.3401 225.083 55.8681C225.329 54.8868 225.605 53.4761 225.911 51.6361C226.279 49.7348 226.709 47.8028 227.199 45.8401C227.69 43.8775 228.242 42.0681 228.855 40.4121C229.53 38.7561 230.266 37.5908 231.063 36.9161C231.37 36.6095 231.738 36.4255 232.167 36.3641C232.597 36.2415 233.057 36.1801 233.547 36.1801C233.854 36.1801 234.375 36.2721 235.111 36.4561C235.847 36.5788 236.583 36.7321 237.319 36.9161C238.117 37.1001 238.883 37.3148 239.619 37.5601C240.355 37.7441 240.877 37.8975 241.183 38.0201C241.735 38.3268 242.257 38.6948 242.747 39.1241C243.299 39.4921 243.698 39.9521 243.943 40.5041C244.495 41.7308 244.741 43.0495 244.679 44.4601C244.618 45.8095 244.495 47.1588 244.311 48.5081C244.066 49.9188 243.79 51.3295 243.483 52.7401C243.177 54.0895 242.839 55.4695 242.471 56.8801C241.613 59.8855 240.723 62.8601 239.803 65.8041C238.945 68.7481 238.147 71.7228 237.411 74.7281C237.227 75.4028 236.89 76.7215 236.399 78.6841C235.97 80.5855 235.479 82.6095 234.927 84.7561C234.375 86.9028 233.823 88.9268 233.271 90.8281C232.781 92.7295 232.413 94.0175 232.167 94.6921C231.615 95.9188 230.91 96.9001 230.051 97.6361C229.254 98.3108 228.242 98.7095 227.015 98.8321ZM212.203 82.9161C211.897 83.0388 211.467 83.1001 210.915 83.1001C210.425 83.1001 209.873 83.0695 209.259 83.0081C208.707 82.9468 208.155 82.8548 207.603 82.7321C207.113 82.6095 206.714 82.5175 206.407 82.4561C205.733 82.2108 205.027 81.9655 204.291 81.7201C203.617 81.4748 202.973 81.1375 202.359 80.7081C202.053 80.4628 201.654 80.1255 201.163 79.6961C200.734 79.2668 200.519 78.8988 200.519 78.5921C200.458 78.1628 200.611 77.9481 200.979 77.9481C201.409 77.8868 201.685 78.0401 201.807 78.4081C203.218 79.4508 204.782 80.1868 206.499 80.6161C208.278 81.0455 210.057 81.2601 211.835 81.2601H212.203C212.694 81.2601 212.909 81.5055 212.847 81.9961C212.847 82.4255 212.633 82.7321 212.203 82.9161Z" fill="white"/>
<path d="M3.00646 27.4401C3.31312 27.6855 3.74246 27.5321 4.29446 26.9801C4.96912 26.3055 5.73579 25.6921 6.59446 25.1401C7.45312 24.5881 8.37312 24.1588 9.35446 23.8521C10.7651 23.4228 12.2371 23.3921 13.7705 23.7601C15.3038 24.1281 16.6838 24.7108 17.9105 25.5081L18.8305 26.0601C19.1985 26.2441 19.5358 26.3055 19.8425 26.2441C20.2718 26.1215 20.4558 25.8455 20.3945 25.4161C20.3945 24.9868 20.2411 24.6188 19.9345 24.3121C19.6891 24.1281 19.1371 23.8215 18.2785 23.3921C17.4198 22.9628 16.8371 22.6868 16.5305 22.5641C15.4878 22.1348 14.3838 21.8588 13.2185 21.7361C12.1145 21.6135 11.0411 21.6748 9.99846 21.9201C8.71046 22.2268 7.48379 22.7481 6.31846 23.4841C5.21446 24.1588 4.23312 25.0175 3.37446 26.0601C2.88379 26.6735 2.76112 27.1335 3.00646 27.4401Z" fill="#BCFF5F"/>
<path d="M28.4905 69.9441C28.9198 70.0668 29.3491 70.0668 29.7785 69.9441C31.0051 69.7601 32.2318 69.6068 33.4585 69.4841C34.7465 69.3615 36.0038 69.2695 37.2305 69.2081C37.5371 69.2081 38.0891 69.2388 38.8865 69.3001C39.6838 69.3001 40.2051 69.2388 40.4505 69.1161C40.9411 68.8708 41.0638 68.5335 40.8185 68.1041C40.6345 67.6748 40.2971 67.4295 39.8065 67.3681C39.3771 67.3681 38.6718 67.4295 37.6905 67.5521C36.7091 67.6135 35.6665 67.7055 34.5625 67.8281C33.4585 67.9508 32.4158 68.1041 31.4345 68.2881C30.4531 68.4721 29.7785 68.5948 29.4105 68.6561C29.2265 68.7175 29.0425 68.7481 28.8585 68.7481C28.6745 68.6868 28.5211 68.7175 28.3985 68.8401C28.2145 68.9628 28.1225 69.1468 28.1225 69.3921C28.1838 69.6375 28.3065 69.8215 28.4905 69.9441Z" fill="#BCFF5F"/>
<path d="M182.34 25.8761C183.874 25.8761 185.346 25.8148 186.756 25.6921C186.94 25.6921 187.278 25.6615 187.768 25.6001L189.24 25.2321C189.792 25.1095 190.283 25.0175 190.712 24.9561C191.203 24.8335 191.54 24.7108 191.724 24.5881C192.092 24.3428 192.215 24.0055 192.092 23.5761C192.031 23.1468 191.786 22.9321 191.356 22.9321C191.05 22.9321 190.743 22.9628 190.436 23.0241L189.516 23.2081C188.106 23.5148 186.664 23.7601 185.192 23.9441C183.72 24.1281 182.248 24.1588 180.776 24.0361C179.979 23.9135 179.212 23.7908 178.476 23.6681C177.74 23.4841 176.974 23.3308 176.176 23.2081C175.808 23.1468 175.502 23.3001 175.256 23.6681C175.072 23.9748 175.164 24.2201 175.532 24.4041C175.9 24.5881 176.299 24.7415 176.728 24.8641L178.016 25.2321C179.427 25.6001 180.868 25.8148 182.34 25.8761Z" fill="#BCFF5F"/>
<path d="M247.899 36.7322C248.145 36.4255 248.206 36.1188 248.083 35.8122C247.961 35.5668 247.715 35.2908 247.347 34.9842C246.979 34.6162 246.581 34.2482 246.151 33.8802C245.722 33.5122 245.293 33.1748 244.863 32.8682C244.495 32.5002 244.189 32.2548 243.943 32.1322C242.41 31.2122 240.723 30.5682 238.883 30.2002C238.025 29.9548 237.166 29.7708 236.307 29.6482C235.449 29.5255 234.59 29.5255 233.731 29.6482C233.363 29.7095 233.087 29.8935 232.903 30.2002C232.719 30.5068 232.781 30.7522 233.087 30.9362C233.394 31.1815 233.731 31.3042 234.099 31.3042C234.529 31.2428 234.927 31.2428 235.295 31.3042C236.829 31.3655 238.331 31.6722 239.803 32.2242C241.275 32.7148 242.655 33.3895 243.943 34.2482C244.495 34.6162 244.986 35.0762 245.415 35.6282C245.906 36.1188 246.458 36.5175 247.071 36.8242C247.378 37.0082 247.654 36.9775 247.899 36.7322Z" fill="#BCFF5F"/>
<path d="M144.841 25.8761C146.374 25.8761 147.846 25.8148 149.257 25.6921C149.441 25.6921 149.778 25.6615 150.269 25.6001L151.741 25.2321C152.293 25.1095 152.784 25.0175 153.213 24.9561C153.704 24.8335 154.041 24.7108 154.225 24.5881C154.593 24.3428 154.716 24.0055 154.593 23.5761C154.532 23.1468 154.286 22.9321 153.857 22.9321C153.55 22.9321 153.244 22.9628 152.937 23.0241L152.017 23.2081C150.606 23.5148 149.165 23.7601 147.693 23.9441C146.221 24.1281 144.749 24.1588 143.277 24.0361C142.48 23.9135 141.713 23.7908 140.977 23.6681C140.241 23.4841 139.474 23.3308 138.677 23.2081C138.309 23.1468 138.002 23.3001 137.757 23.6681C137.573 23.9748 137.665 24.2201 138.033 24.4041C138.401 24.5881 138.8 24.7415 139.229 24.8641L140.517 25.2321C141.928 25.6001 143.369 25.8148 144.841 25.8761Z" fill="#BCFF5F"/>
<path d="M210.915 83.1C211.467 83.1 211.896 83.0387 212.203 82.916C212.632 82.732 212.847 82.4253 212.847 81.996C212.908 81.5053 212.694 81.26 212.203 81.26H211.835C210.056 81.26 208.278 81.0453 206.499 80.616C204.782 80.1867 203.218 79.4507 201.807 78.408C201.684 78.04 201.408 77.8867 200.979 77.948C200.611 77.948 200.458 78.1627 200.519 78.592C200.519 78.8987 200.734 79.2667 201.163 79.696C201.654 80.1253 202.052 80.4627 202.359 80.708C202.972 81.1373 203.616 81.4747 204.291 81.72C205.027 81.9653 205.732 82.2107 206.407 82.456C206.714 82.5173 207.112 82.6093 207.603 82.732C208.155 82.8547 208.707 82.9467 209.259 83.008C209.872 83.0693 210.424 83.1 210.915 83.1Z" fill="#BCFF5F"/>
<path d="M176.452 91.7481C177.004 91.7481 177.403 91.7175 177.648 91.6561C178.445 91.4108 179.212 91.0121 179.948 90.4601C180.684 89.9081 181.297 89.2641 181.788 88.5281C182.34 87.7921 182.769 86.9948 183.076 86.1361C183.383 85.2161 183.505 84.2961 183.444 83.3761C183.321 82.1495 183.168 80.9535 182.984 79.7881C182.8 78.5615 182.585 77.3655 182.34 76.2001C182.217 75.7095 181.972 75.5255 181.604 75.6481C181.236 75.7095 181.113 75.9548 181.236 76.3841C181.481 77.6108 181.696 78.8068 181.88 79.9721C182.125 81.0761 182.217 82.2415 182.156 83.4681C182.156 85.5535 181.359 87.3015 179.764 88.7121C178.967 89.3868 178.016 89.7855 176.912 89.9081C176.728 89.9081 176.391 89.9388 175.9 90.0001H174.336H172.772C172.343 90.0615 172.036 90.1228 171.852 90.1841C171.423 90.3068 171.208 90.5521 171.208 90.9201C171.269 91.2881 171.484 91.5028 171.852 91.5641C172.097 91.6255 172.496 91.6561 173.048 91.6561C173.6 91.7175 174.152 91.7481 174.704 91.7481C175.317 91.8095 175.9 91.8095 176.452 91.7481Z" fill="#BCFF5F"/>
<path d="M138.953 91.7481C139.505 91.7481 139.904 91.7175 140.149 91.6561C140.946 91.4108 141.713 91.0121 142.449 90.4601C143.185 89.9081 143.798 89.2641 144.289 88.5281C144.841 87.7921 145.27 86.9948 145.577 86.1361C145.884 85.2161 146.006 84.2961 145.945 83.3761C145.822 82.1495 145.669 80.9535 145.485 79.7881C145.301 78.5615 145.086 77.3655 144.841 76.2001C144.718 75.7095 144.473 75.5255 144.105 75.6481C143.737 75.7095 143.614 75.9548 143.737 76.3841C143.982 77.6108 144.197 78.8068 144.381 79.9721C144.626 81.0761 144.718 82.2415 144.657 83.4681C144.657 85.5535 143.86 87.3015 142.265 88.7121C141.468 89.3868 140.517 89.7855 139.413 89.9081C139.229 89.9081 138.892 89.9388 138.401 90.0001H136.837H135.273C134.844 90.0615 134.537 90.1228 134.353 90.1841C133.924 90.3068 133.709 90.5521 133.709 90.9201C133.77 91.2881 133.985 91.5028 134.353 91.5641C134.598 91.6255 134.997 91.6561 135.549 91.6561C136.101 91.7175 136.653 91.7481 137.205 91.7481C137.818 91.8095 138.401 91.8095 138.953 91.7481Z" fill="#BCFF5F"/>
<path d="M119.308 55.868C119.86 55.684 120.106 55.3467 120.044 54.856C119.983 54.5494 119.83 54.0587 119.584 53.384C119.339 52.7094 119.063 52.004 118.756 51.268C118.511 50.4707 118.235 49.7654 117.928 49.152C117.683 48.4774 117.499 47.9867 117.376 47.68C116.518 45.7787 115.168 44.2454 113.328 43.08C111.55 41.9147 109.587 41.3627 107.44 41.424C107.072 41.424 106.612 41.516 106.06 41.7C105.508 41.8227 104.926 42.0067 104.312 42.252C103.699 42.436 103.116 42.6507 102.564 42.896C102.074 43.1414 101.706 43.3867 101.46 43.632C101.154 43.9387 101.154 44.2147 101.46 44.46C101.828 44.7054 102.196 44.736 102.564 44.552C103.423 44.1227 104.282 43.7547 105.14 43.448C106.06 43.1414 107.011 43.0187 107.992 43.08C109.158 43.1414 110.292 43.448 111.396 44C112.5 44.4907 113.482 45.1654 114.34 46.024C114.892 46.6987 115.322 47.4347 115.628 48.232C115.996 48.968 116.334 49.7654 116.64 50.624C116.947 51.4214 117.223 52.2187 117.468 53.016C117.714 53.752 117.99 54.5187 118.296 55.316C118.48 55.8067 118.818 55.9907 119.308 55.868Z" fill="#BCFF5F"/>
<path d="M71.0371 46.392C71.4051 46.392 71.6504 46.2386 71.7731 45.932C71.8344 45.8093 71.865 45.6253 71.865 45.38C71.9264 45.0733 71.9571 44.8586 71.9571 44.736C72.1411 42.2213 72.2331 39.7066 72.2331 37.192C72.2331 34.616 71.8037 32.1626 70.9451 29.832C70.4544 28.6666 69.7797 27.5933 68.9211 26.612C68.1237 25.5693 67.1424 24.8026 65.9771 24.312C65.3637 24.0666 64.9037 23.9746 64.5971 24.036C64.3517 24.1586 64.1984 24.3426 64.1371 24.588C64.0757 24.772 64.1677 24.956 64.4131 25.14C64.5357 25.2013 64.6277 25.232 64.6891 25.232C64.8117 25.232 64.9344 25.2933 65.0571 25.416C66.0384 25.9066 66.8971 26.5813 67.6331 27.44C68.4304 28.2986 69.0131 29.2493 69.3811 30.292C70.1784 32.4386 70.6077 34.6773 70.6691 37.008C70.7304 39.3386 70.6691 41.6693 70.4851 44L70.3011 44.92C70.3011 45.2266 70.3624 45.5333 70.4851 45.84C70.5464 46.208 70.7304 46.392 71.0371 46.392Z" fill="#BCFF5F"/>
</svg>
