<svg width="152" height="213" viewBox="0 0 152 241" fill="none" xmlns="http://www.w3.org/2000/svg"><g clip-path="url(#a)"><path d="m80.86 78.582 22.281 30.712c.064-.345.126-.678.18-.943.048-.238.109-.523.174-.699l.001-.002c.008-.023.071-.203.215-.363.056-.062.384-.414.923-.32.515.089.711.503.741.566.087.184.099.363.102.395v.003c.005.067.007.135.007.194-.001.303-.043.921-.137 1.961 9.774-3.716 16.312-13.003 16.448-23.471l1 .013.063-4.718c.388-28.113.805-58.262-8.05-71.465-2.981-4.441-9.215-5.061-13.072-1.341C85.301 24.922 80.723 68.58 79.959 77.34zm0 .016-.21c.03-.382.078-.947.144-1.673.134-1.453.345-3.55.655-6.121.62-5.146 1.638-12.187 3.224-19.772 1.587-7.59 3.739-15.702 6.622-22.998 2.889-7.312 6.481-13.723 10.908-17.984h.001c3.416-3.295 8.92-2.738 11.548 1.179z" stroke="#BCFF5F" stroke-width="2"/><path d="M47.076 69.027q.233.728.36 1.13l-21.161 32.665C15.747 100.039 8.213 90.89 7.505 80.125q-.156-2.382-.318-4.787C6.312 62.284 5.41 48.837 5.54 36.852c.145-13.511 1.604-24.92 5.706-31.79.649-1.087 1.288-1.919 1.901-2.497.616-.58 1.159-.86 1.618-.942.793-.142 1.89.263 3.198 2.42 9.33 15.338 16.735 31.982 21.81 44.804a363 363 0 0 1 5.808 15.699c.66 1.922 1.16 3.442 1.494 4.481Z" fill="#054BB4" stroke="#BCFF5F" stroke-width="2"/><path d="M114.469 125.866c.151 2.902.66 6.522 1.334 10.28 2.311 12.858 7.159 25.09 13.87 36.297a195 195 0 0 1 7.551 13.844 21 21 0 0 0-1.623-.779l-3.25-1.394 2.039 2.889a67.8 67.8 0 0 1 10.739 24.224l-2.385-3.322-1.736.967c2.133 5.124 4.637 13.089 6.615 19.808a537 537 0 0 1 3.072 10.857l-128.556.067v-.169l-1.023.023-2.236.05c-1.585-6.282.183-14.054 3.27-19.937l1.787-3.405-3.22 2.104a16 16 0 0 0-2.582 2.102c.201-4.544 1.7-9.038 4.313-12.777l-1.334-1.43q-.83.497-1.659.997c1.697-2.703 3.294-5.51 4.496-8.51l.015-.029.02-.039.016-.041c1.66-4.164 1.96-8.772.763-13.104-2.166-7.838-6.01-15.202-11.333-21.611-9.597-11.54-14.643-26.367-11.542-41.376q.463-2.24.922-4.492c1.663-8.145 3.345-16.379 5.6-24.143l.061-.209-.031-.215c-.862-5.864.645-12.048 4.152-16.851l1.294-1.771-2.185.185q-1.065.091-2.108.295c.914-2.056 1.889-4.028 3.13-5.835l.002-.002c1.592-2.334 3.646-4.337 6.137-5.457l2.333-1.05-2.426-.81a7.5 7.5 0 0 0-3.187-.333c1.032-1.339 2.14-2.548 3.457-3.5 2.074-1.503 4.71-2.22 6.95-1.484l1.318.433-.005-1.387c-.008-2.325-.061-5.13-1.195-7.486 2.047.5 3.934 1.638 5.279 3.231l1.003 1.19.665-1.407a10.2 10.2 0 0 0 .837-5.906c1.285.753 2.457 1.63 3.43 2.685l.002.002c1.408 1.515 2.358 3.417 2.485 5.36l-.234.464-1 1.98 2.146-.562c4.582-1.2 9.786-1.769 15.757-1.58 10.94.346 19.838 2.399 27.08 5.715l.892.409.425-.884a10.3 10.3 0 0 1 1.7-2.494c.972-1.054 2.144-1.932 3.429-2.685a10.24 10.24 0 0 0 .837 5.905l.663 1.402 1.003-1.182c1.354-1.593 3.24-2.731 5.28-3.232-1.132 2.357-1.185 5.16-1.194 7.485l-.005 1.389 1.319-.436c2.227-.735 4.875-.019 6.95 1.484l.002.001c1.32.952 2.425 2.162 3.454 3.5a7.5 7.5 0 0 0-3.198.332l-2.421.81 2.326 1.05c2.481 1.12 4.536 3.124 6.141 5.46 1.24 1.805 2.213 3.781 3.127 5.834a20 20 0 0 0-2.105-.295l-2.183-.184 1.291 1.77c3.341 4.582 4.875 10.418 4.259 16.026-.6-.163-1.209-.27-1.819-.329l-1.309-.127.228 1.296c1.307 7.422 1.771 15.15 1.771 22.721 0 .272.012.731.047 1.328Zm0 0v.004l.999-.058-.999.052z" fill="#054BB4" stroke="#BCFF5F" stroke-width="2"/><path d="M35.986 159.687s-18.249 30.572-4.038 40.042c1.33.89 2.867 1.443 4.448 1.758 4.13.846 13.289 1.804 17.76-4.915 1.354-2.029 1.945-4.464 1.9-6.899-.114-6.166-.023-23.154 4.244-26.852 0 0-6.641 4.743-14.016-3.873-2.554 2.531-7.319 1.421-10.298.739m32.937-27.608a1.2 1.2 0 0 0-.307-.484 1.06 1.06 0 0 0-.49-.305 1.15 1.15 0 0 0-.58-.124l-.398.057a1.6 1.6 0 0 0-.671.383l-.239.304a1.5 1.5 0 0 0-.205.756v.078c0 .203.034.395.125.575.057.181.171.35.308.485.136.147.295.248.489.304.182.091.375.136.58.124.136-.022.273-.033.398-.056.262-.068.478-.203.671-.383l.24-.305c.136-.236.204-.484.204-.755v-.079a1.25 1.25 0 0 0-.125-.575m1.377-5.963c-1.946 0-1.946 2.999 0 2.999s1.945-2.999 0-2.999m3.675 8.196c-1.946 0-1.946 2.998 0 2.998s1.945-2.998 0-2.998m-54.145-2.233c.057-.18.17-.349.307-.484a1.06 1.06 0 0 1 .49-.305c.182-.09.375-.135.58-.124.136.023.273.034.398.057a1.6 1.6 0 0 1 .671.383l.24.304c.136.237.204.485.204.756v.078c0 .203-.034.395-.125.575-.057.181-.17.35-.307.485a1.05 1.05 0 0 1-.49.304 1.13 1.13 0 0 1-.58.124c-.136-.022-.273-.033-.398-.056a1.54 1.54 0 0 1-.671-.383l-.24-.305a1.5 1.5 0 0 1-.204-.755v-.079c0-.203.034-.394.125-.575m-1.376-5.963c1.945 0 1.945 2.999 0 2.999s-1.946-2.999 0-2.999m-3.675 8.196c1.945 0 1.945 2.998 0 2.998s-1.946-2.998 0-2.998m44.201.214c0 4.329-7.691 13.392-17.169 13.392-9.477 0-17.168-9.063-17.168-13.392s7.691-7.835 17.168-7.835 17.169 3.506 17.169 7.835" fill="#BCFF5F"/><path d="M54.406 132.689c0 3.179-5.643 9.83-12.606 9.83s-12.606-6.651-12.606-9.83 5.643-5.75 12.606-5.75 12.606 2.571 12.606 5.75" fill="#BCFF5F" style="mix-blend-mode:screen" opacity=".35"/><path d="M42.107 135.304c5.743 0 10.4-1.721 10.4-3.844s-4.657-3.844-10.4-3.844-10.398 1.721-10.398 3.844 4.655 3.844 10.398 3.844M29.99 102.601a11.3 11.3 0 0 1-.477 2.672c-.342 1.116-.842 2.198-1.616 3.066-.785.868-1.866 1.499-3.038 1.567-1.012.056-2.013-.304-2.821-.902-.808-.597-1.434-1.42-1.889-2.322-1.98-3.833-.682-12.524 5.382-11.07 1.911.462 3.424 2.063 4.073 3.9a8.1 8.1 0 0 1 .41 3.089zm-2.366-16.763c-2.89-.417-5.87.08-8.351 1.68-2.264 1.454-3.914 3.607-4.813 6.121-.273.767.307 1.635 1.058 1.838.83.225 1.582-.282 1.855-1.049.614-1.702 1.877-3.325 3.424-4.328 1.775-1.15 3.982-1.669 6.019-1.376.808.113 1.627-.191 1.854-1.048.194-.699-.239-1.725-1.058-1.838zm42.312 0c2.89-.417 5.87.08 8.35 1.68 2.265 1.454 3.914 3.607 4.813 6.121.273.767-.307 1.635-1.058 1.838-.842.225-1.581-.282-1.854-1.049-.615-1.702-1.878-3.325-3.425-4.328-1.775-1.15-3.982-1.669-6.019-1.376-.807.113-1.626-.191-1.854-1.048-.193-.699.239-1.725 1.058-1.838zm9.352 18.623a11.3 11.3 0 0 1-.478 2.672c-.341 1.116-.842 2.198-1.615 3.066-.785.868-1.866 1.499-3.038 1.567-1.013.056-2.014-.304-2.833-.902-.808-.597-1.434-1.42-1.889-2.322-1.98-3.833-.682-12.524 5.382-11.07 1.911.462 3.424 2.063 4.073 3.9.341.992.466 2.041.41 3.089zm-11.981 49.375c.217-1.695-2.464-1.71-2.678-.025-.498 3.895-3.739 7.235-7.602 7.967-4.037.764-8.213-1.559-10.005-5.129-.456-.906-1.821-.887-2.323-.039-1.331 2.244-4.06 3.6-6.665 3.034-2.645-.575-4.485-2.878-4.815-5.483-.215-1.697-2.813-1.028-2.599.651.454 3.592 3.38 6.805 6.996 7.459 2.98.54 6.039-.518 8.103-2.64 2.694 3.615 7.427 5.586 11.95 4.728 5.134-.972 8.992-5.476 9.638-10.523" fill="#BCFF5F"/><rect x="3.102" y="83.572" width="47.58" height="30.308" rx="15.154" fill="#BCFF5F"/><rect x="56.044" y="83.572" width="47.58" height="30.308" rx="15.154" fill="#BCFF5F"/><path d="M46.116 97.506c2.517 2.94 9.313 7.056 16.37 0m39.73 2.225 13.826-2.384" stroke="#BCFF5F" stroke-width="2"/></g><defs><clipPath id="a"><path fill="#fff" d="M0 .604h152v240H0z"/></clipPath></defs></svg>